<svg xmlns="http://www.w3.org/2000/svg" width="124.68" height="35.325" viewBox="0 0 124.68 35.325">
  <path id="logo" d="M894.362,29.109a6.13,6.13,0,0,0-5.245,2.641l-.081-2.271-2.635.141v.229c.027.6.052,1.078.079,1.59.052.937.131,1.989.131,3.89v18.6h2.847V38.281a16.318,16.318,0,0,1,.079-2.016c.555-3.435,2.585-4.657,4.156-4.657,2.583,0,3.715,1.959,3.715,6.39V53.928h2.847V37.144C900.265,29.876,896.136,29.109,894.362,29.109Zm-57.278,0c-4.665,0-7.642,4.97-7.642,12.692a16.951,16.951,0,0,0,2.055,8.916,7.14,7.14,0,0,0,6.3,3.493,9.259,9.259,0,0,0,4.877-1.278l.158-.114-.9-2.186-.183.141a6.943,6.943,0,0,1-3.532.879c-3.848,0-5.818-3.52-5.878-10.506h11.281V39.416C843.621,34.418,841.9,29.109,837.084,29.109Zm0,0Zm-.376,2.527h0a3.081,3.081,0,0,1,2.188,1.078,8.619,8.619,0,0,1,1.712,6.026h-8.225C832.71,35.185,834.158,31.636,836.707,31.636Zm90.463-2.527c-3.769,0-7.8,3.294-7.8,12.607s4.042,12.609,7.522,12.609c3.717,0,7.688-3.325,7.688-12.607s-4-12.609-7.4-12.609Zm0,0Zm-.291,2.527h0c4.349,0,4.692,7.688,4.692,10.08,0,2.329-.343,10.024-4.64,10.024-4.349,0-4.665-7.688-4.665-10.024.008-2.385.324-10.08,4.623-10.08Zm-104.935-9.6a11.013,11.013,0,0,0-7.381-2.3,12.911,12.911,0,0,0-4.534.711l-.131.029.079,33.247.158.029a17.165,17.165,0,0,0,3.769.312,11.5,11.5,0,0,0,9.12-3.919c2.558-3.117,3.823-7.809,3.823-14.284.01-8.6-3.075-12.347-4.893-13.824Zm0,0Zm-7.828,29.475h0a13.42,13.42,0,0,1-1.372-.056V22.408a11.636,11.636,0,0,1,1.818-.143c6.194,0,9.332,4.657,9.332,13.922.01,10.157-3.285,15.327-9.768,15.327Zm32.869,2.415h2.847V19h-2.847V53.926Zm63.761-24.819A6.13,6.13,0,0,0,905.5,31.75l-.079-2.271-2.637.141v.229c.027.6.052,1.078.079,1.59.052.937.131,1.989.131,3.89v18.6h2.847V38.281a12.129,12.129,0,0,1,.106-2.016c.528-3.435,2.558-4.657,4.139-4.657,2.583,0,3.715,1.959,3.715,6.39V53.928h2.847V37.144c.01-7.269-4.1-8.035-5.893-8.035Zm-35.242-9.2h-2.6L864.68,53.641l-.079.285h2.822l2.768-11.472h8.075l2.768,11.472h2.926l-8.383-33.87Zm0,0Zm2.055,20.019h-6.774l2.057-8.935c.474-2.016.9-4.06,1.317-6.246.416,2.327.844,4.26,1.292,6.219Zm-24.356,14h2.847V19H853.2Z" transform="translate(-809.898 -19)" fill-rule="evenodd" fill="#fff" />
</svg>
